<svg width="111.12mm" height="104.63mm" version="1.1" viewBox="0 0 111.12 104.63" xmlns="http://www.w3.org/2000/svg">
 <g transform="translate(-47.625 -101.74)">
  <path transform="matrix(.86304 0 0 .79755 12.567 29.106)" d="m148.26 209.12-42.333 10.583-37.245-6.8865-23.147-36.991-4.9599-37.55 28.028-33.445 34.18-16.321 40.469 16.321 26.084 27.463-3.0164 43.532z" fill="#d10059"/>
  <g transform="matrix(.82609 0 0 .85714 18.406 22.679)">
   <path d="m71.438 116.42v74.083h7.9375v-31.75h26.458v31.75h34.396v-7.9375h-26.458v-23.812l18.521-42.333h-7.9375l-14.357 34.616-6.8095-34.616h-7.9375l7.3805 34.616-23.255-0.22049v-34.396z"/>
  </g>
 </g>
</svg>
